<svg width="32" height="32" viewBox="0 0 32 32" fill="none" xmlns="http://www.w3.org/2000/svg">
<path d="M26.7071 15.2925C26.8001 15.3854 26.8738 15.4957 26.9241 15.6171C26.9745 15.7385 27.0004 15.8686 27.0004 16C27.0004 16.1314 26.9745 16.2615 26.9241 16.3829C26.8738 16.5043 26.8001 16.6146 26.7071 16.7075L16.7071 26.7075C16.6142 26.8005 16.5039 26.8742 16.3825 26.9246C16.2611 26.9749 16.131 27.0008 15.9996 27.0008C15.8682 27.0008 15.738 26.9749 15.6166 26.9246C15.4952 26.8742 15.385 26.8005 15.2921 26.7075L5.29208 16.7075C5.10444 16.5199 4.99902 16.2654 4.99902 16C4.99902 15.7346 5.10444 15.4801 5.29208 15.2925C5.47972 15.1049 5.73422 14.9994 5.99958 14.9994C6.26494 14.9994 6.51944 15.1049 6.70708 15.2925L15.9996 24.5863L25.2921 15.2925C25.385 15.1995 25.4952 15.1258 25.6166 15.0754C25.738 15.0251 25.8682 14.9992 25.9996 14.9992C26.131 14.9992 26.2611 15.0251 26.3825 15.0754C26.5039 15.1258 26.6142 15.1995 26.7071 15.2925ZM15.2921 16.7075C15.385 16.8005 15.4952 16.8742 15.6166 16.9246C15.738 16.9749 15.8682 17.0008 15.9996 17.0008C16.131 17.0008 16.2611 16.9749 16.3825 16.9246C16.5039 16.8742 16.6142 16.8005 16.7071 16.7075L26.7071 6.7075C26.8947 6.51986 27.0001 6.26536 27.0001 6C27.0001 5.73464 26.8947 5.48014 26.7071 5.2925C26.5194 5.10486 26.2649 4.99944 25.9996 4.99944C25.7342 4.99944 25.4797 5.10486 25.2921 5.2925L15.9996 14.5862L6.70708 5.2925C6.51944 5.10486 6.26494 4.99944 5.99958 4.99944C5.73422 4.99944 5.47972 5.10486 5.29208 5.2925C5.10444 5.48014 4.99902 5.73464 4.99902 6C4.99902 6.26536 5.10444 6.51986 5.29208 6.7075L15.2921 16.7075Z" fill="white"/>
</svg>
