<svg width="22" height="22" viewBox="0 0 22 22" fill="none" xmlns="http://www.w3.org/2000/svg">
<path d="M11.889 17.6738C11.8251 17.61 11.7744 17.5341 11.7398 17.4507C11.7052 17.3672 11.6874 17.2777 11.6874 17.1874C11.6874 17.097 11.7052 17.0076 11.7398 16.9241C11.7744 16.8407 11.8251 16.7648 11.889 16.701L16.9035 11.6874H3.43793C3.2556 11.6874 3.08073 11.615 2.9518 11.486C2.82287 11.3571 2.75043 11.1822 2.75043 10.9999C2.75043 10.8176 2.82287 10.6427 2.9518 10.5138C3.08073 10.3848 3.2556 10.3124 3.43793 10.3124H16.9035L11.889 5.2988C11.76 5.1698 11.6876 4.99483 11.6876 4.81239C11.6876 4.62996 11.76 4.45499 11.889 4.32599C12.018 4.19698 12.193 4.12451 12.3754 4.12451C12.5579 4.12451 12.7328 4.19698 12.8618 4.32599L19.0493 10.5135C19.1133 10.5773 19.164 10.6532 19.1986 10.7366C19.2332 10.8201 19.251 10.9095 19.251 10.9999C19.251 11.0902 19.2332 11.1797 19.1986 11.2632C19.164 11.3466 19.1133 11.4225 19.0493 11.4863L12.8618 17.6738C12.798 17.7377 12.7222 17.7884 12.6387 17.823C12.5552 17.8576 12.4658 17.8754 12.3754 17.8754C12.2851 17.8754 12.1956 17.8576 12.1122 17.823C12.0287 17.7884 11.9529 17.7377 11.889 17.6738Z" fill="#243761" fill-opacity="0.88"/>
<path d="M11.783 5.40488L11.783 5.40487C11.6258 5.24773 11.5376 5.03461 11.5376 4.81239C11.5376 4.59017 11.6258 4.37706 11.783 4.21992C11.9401 4.06279 12.1532 3.97451 12.3754 3.97451C12.5977 3.97451 12.8108 4.06279 12.9679 4.21992L19.1553 10.4074C19.1554 10.4074 19.1554 10.4074 19.1554 10.4074C19.2332 10.4852 19.295 10.5775 19.3371 10.6792C19.3793 10.7809 19.401 10.8898 19.401 10.9999C19.401 11.11 19.3793 11.2189 19.3371 11.3206C19.295 11.4223 19.2332 11.5146 19.1554 11.5924C19.1554 11.5924 19.1554 11.5924 19.1553 11.5924L12.968 17.7798L12.9679 17.7799L11.783 5.40488ZM11.783 5.40488L16.5413 10.1624L11.783 5.40488Z" stroke="#243761" stroke-opacity="0.88" stroke-width="0.3"/>
</svg>
