<svg width="32" height="32" viewBox="0 0 32 32" fill="none" xmlns="http://www.w3.org/2000/svg">
<path d="M9.29194 15.2925L19.2919 5.29249C19.3849 5.19958 19.4952 5.12588 19.6165 5.0756C19.7379 5.02532 19.868 4.99944 19.9994 4.99944C20.1308 4.99944 20.2609 5.02532 20.3823 5.0756C20.5037 5.12588 20.614 5.19958 20.7069 5.29249C20.7999 5.3854 20.8736 5.4957 20.9238 5.6171C20.9741 5.73849 21 5.8686 21 5.99999C21 6.13139 20.9741 6.2615 20.9238 6.38289C20.8736 6.50428 20.7999 6.61458 20.7069 6.70749L11.4132 16L20.7069 25.2925C20.8946 25.4801 21 25.7346 21 26C21 26.2654 20.8946 26.5199 20.7069 26.7075C20.5193 26.8951 20.2648 27.0005 19.9994 27.0005C19.7341 27.0005 19.4796 26.8951 19.2919 26.7075L9.29194 16.7075C9.19897 16.6146 9.12521 16.5043 9.07488 16.3829C9.02456 16.2615 8.99866 16.1314 8.99866 16C8.99866 15.8686 9.02456 15.7385 9.07488 15.6171C9.12521 15.4957 9.19897 15.3854 9.29194 15.2925Z" fill="#243761"/>
</svg>
