<svg width="50" height="50" viewBox="0 0 50 50" fill="none" xmlns="http://www.w3.org/2000/svg">
<path d="M4.6875 18.75V32.8125C4.6875 33.2269 4.85212 33.6243 5.14515 33.9174C5.43817 34.2104 5.8356 34.375 6.25 34.375H21.875C22.2894 34.375 22.6868 34.5396 22.9799 34.8326C23.2729 35.1257 23.4375 35.5231 23.4375 35.9375C23.4375 36.3519 23.2729 36.7493 22.9799 37.0424C22.6868 37.3354 22.2894 37.5 21.875 37.5H18.75V40.625H21.875C22.2894 40.625 22.6868 40.7896 22.9799 41.0826C23.2729 41.3757 23.4375 41.7731 23.4375 42.1875C23.4375 42.6019 23.2729 42.9993 22.9799 43.2924C22.6868 43.5854 22.2894 43.75 21.875 43.75H12.5C12.0856 43.75 11.6882 43.5854 11.3951 43.2924C11.1021 42.9993 10.9375 42.6019 10.9375 42.1875C10.9375 41.7731 11.1021 41.3757 11.3951 41.0826C11.6882 40.7896 12.0856 40.625 12.5 40.625H15.625V37.5H6.25C5.0068 37.5 3.81451 37.0061 2.93544 36.1271C2.05636 35.248 1.5625 34.0557 1.5625 32.8125V18.75C1.5625 17.5068 2.05636 16.3145 2.93544 15.4354C3.81451 14.5564 5.0068 14.0625 6.25 14.0625H21.875C22.2894 14.0625 22.6868 14.2271 22.9799 14.5201C23.2729 14.8132 23.4375 15.2106 23.4375 15.625C23.4375 16.0394 23.2729 16.4368 22.9799 16.7299C22.6868 17.0229 22.2894 17.1875 21.875 17.1875H6.25C5.8356 17.1875 5.43817 17.3521 5.14515 17.6451C4.85212 17.9382 4.6875 18.3356 4.6875 18.75ZM40.625 12.5H34.375C33.9606 12.5 33.5632 12.6646 33.2701 12.9576C32.9771 13.2507 32.8125 13.6481 32.8125 14.0625C32.8125 14.4769 32.9771 14.8743 33.2701 15.1674C33.5632 15.4604 33.9606 15.625 34.375 15.625H40.625C41.0394 15.625 41.4368 15.4604 41.7299 15.1674C42.0229 14.8743 42.1875 14.4769 42.1875 14.0625C42.1875 13.6481 42.0229 13.2507 41.7299 12.9576C41.4368 12.6646 41.0394 12.5 40.625 12.5ZM40.625 18.75H34.375C33.9606 18.75 33.5632 18.9146 33.2701 19.2076C32.9771 19.5007 32.8125 19.8981 32.8125 20.3125C32.8125 20.7269 32.9771 21.1243 33.2701 21.4174C33.5632 21.7104 33.9606 21.875 34.375 21.875H40.625C41.0394 21.875 41.4368 21.7104 41.7299 21.4174C42.0229 21.1243 42.1875 20.7269 42.1875 20.3125C42.1875 19.8981 42.0229 19.5007 41.7299 19.2076C41.4368 18.9146 41.0394 18.75 40.625 18.75ZM48.4375 9.375V40.625C48.4375 41.4538 48.1083 42.2487 47.5222 42.8347C46.9362 43.4208 46.1413 43.75 45.3125 43.75H29.6875C28.8587 43.75 28.0638 43.4208 27.4778 42.8347C26.8917 42.2487 26.5625 41.4538 26.5625 40.625V9.375C26.5625 8.5462 26.8917 7.75134 27.4778 7.16529C28.0638 6.57924 28.8587 6.25 29.6875 6.25H45.3125C46.1413 6.25 46.9362 6.57924 47.5222 7.16529C48.1083 7.75134 48.4375 8.5462 48.4375 9.375ZM45.3125 40.625V9.375H29.6875V40.625H45.3125ZM37.5 32.8125C37.0364 32.8125 36.5833 32.95 36.1979 33.2075C35.8125 33.465 35.5121 33.8311 35.3347 34.2593C35.1573 34.6876 35.1109 35.1588 35.2013 35.6135C35.2917 36.0681 35.5149 36.4858 35.8427 36.8135C36.1705 37.1413 36.5881 37.3645 37.0428 37.455C37.4974 37.5454 37.9686 37.499 38.3969 37.3216C38.8252 37.1442 39.1912 36.8438 39.4488 36.4584C39.7063 36.0729 39.8438 35.6198 39.8438 35.1562C39.8438 34.5346 39.5968 33.9385 39.1573 33.499C38.7177 33.0594 38.1216 32.8125 37.5 32.8125Z" fill="#5380E0"/>
</svg>
