<svg width="51" height="51" viewBox="0 0 51 51" fill="none" xmlns="http://www.w3.org/2000/svg">
<path d="M25.5 4.78125C21.4022 4.78125 17.3965 5.99638 13.9893 8.27299C10.5821 10.5496 7.92653 13.7854 6.35838 17.5713C4.79023 21.3571 4.37993 25.523 5.17936 29.542C5.9788 33.5611 7.95207 37.2528 10.8496 40.1504C13.7472 43.0479 17.4389 45.0212 21.458 45.8206C25.477 46.6201 29.6429 46.2098 33.4287 44.6416C37.2146 43.0735 40.4504 40.4179 42.727 37.0107C45.0036 33.6035 46.2188 29.5978 46.2188 25.5C46.213 20.0068 44.0282 14.7403 40.144 10.856C36.2597 6.97178 30.9932 4.78705 25.5 4.78125ZM27.0938 42.9575V30.2812H31.875C32.2977 30.2812 32.7031 30.1133 33.002 29.8145C33.3008 29.5156 33.4688 29.1102 33.4688 28.6875C33.4688 28.2648 33.3008 27.8594 33.002 27.5605C32.7031 27.2617 32.2977 27.0938 31.875 27.0938H27.0938V22.3125C27.0938 21.4671 27.4296 20.6564 28.0274 20.0586C28.6251 19.4608 29.4359 19.125 30.2813 19.125H33.4688C33.8914 19.125 34.2968 18.9571 34.5957 18.6582C34.8946 18.3593 35.0625 17.9539 35.0625 17.5312C35.0625 17.1086 34.8946 16.7032 34.5957 16.4043C34.2968 16.1054 33.8914 15.9375 33.4688 15.9375H30.2813C28.5905 15.9375 26.969 16.6091 25.7735 17.8047C24.5779 19.0002 23.9063 20.6217 23.9063 22.3125V27.0938H19.125C18.7023 27.0938 18.2969 27.2617 17.9981 27.5605C17.6992 27.8594 17.5313 28.2648 17.5313 28.6875C17.5313 29.1102 17.6992 29.5156 17.9981 29.8145C18.2969 30.1133 18.7023 30.2812 19.125 30.2812H23.9063V42.9575C19.4135 42.5474 15.2517 40.421 12.2867 37.0207C9.32168 33.6204 7.78164 29.208 7.98692 24.7012C8.1922 20.1944 10.127 15.9402 13.3889 12.8235C16.6507 9.70685 20.9885 7.96763 25.5 7.96763C30.0115 7.96763 34.3493 9.70685 37.6112 12.8235C40.873 15.9402 42.8078 20.1944 43.0131 24.7012C43.2184 29.208 41.6783 33.6204 38.7133 37.0207C35.7483 40.421 31.5866 42.5474 27.0938 42.9575Z" fill="#243761"/>
</svg>
