<svg width="51" height="51" viewBox="0 0 51 51" fill="none" xmlns="http://www.w3.org/2000/svg">
<path d="M25.5 15.9375C23.6087 15.9375 21.7599 16.4983 20.1874 17.5491C18.6148 18.5998 17.3892 20.0933 16.6654 21.8406C15.9416 23.5879 15.7523 25.5106 16.1212 27.3656C16.4902 29.2205 17.401 30.9244 18.7383 32.2617C20.0756 33.599 21.7795 34.5098 23.6344 34.8788C25.4894 35.2477 27.4121 35.0584 29.1594 34.3346C30.9067 33.6108 32.4002 32.3852 33.4509 30.8126C34.5017 29.2401 35.0625 27.3913 35.0625 25.5C35.0599 22.9647 34.0515 20.5339 32.2588 18.7412C30.4661 16.9485 28.0353 15.9401 25.5 15.9375ZM25.5 31.875C24.2391 31.875 23.0066 31.5011 21.9582 30.8006C20.9099 30.1001 20.0928 29.1045 19.6103 27.9396C19.1278 26.7747 19.0015 25.4929 19.2475 24.2563C19.4935 23.0197 20.1006 21.8838 20.9922 20.9922C21.8838 20.1006 23.0197 19.4935 24.2563 19.2475C25.4929 19.0015 26.7747 19.1278 27.9396 19.6103C29.1045 20.0928 30.1001 20.9099 30.8006 21.9582C31.5011 23.0066 31.875 24.2391 31.875 25.5C31.875 27.1908 31.2033 28.8123 30.0078 30.0078C28.8123 31.2033 27.1908 31.875 25.5 31.875ZM35.0625 4.78125H15.9375C12.9796 4.78441 10.1439 5.96082 8.05233 8.05233C5.96082 10.1439 4.78441 12.9796 4.78125 15.9375V35.0625C4.78441 38.0204 5.96082 40.8561 8.05233 42.9477C10.1439 45.0392 12.9796 46.2156 15.9375 46.2188H35.0625C38.0204 46.2156 40.8561 45.0392 42.9477 42.9477C45.0392 40.8561 46.2156 38.0204 46.2188 35.0625V15.9375C46.2156 12.9796 45.0392 10.1439 42.9477 8.05233C40.8561 5.96082 38.0204 4.78441 35.0625 4.78125ZM43.0312 35.0625C43.0312 37.1759 42.1917 39.2028 40.6973 40.6973C39.2028 42.1917 37.1759 43.0312 35.0625 43.0312H15.9375C13.8241 43.0312 11.7972 42.1917 10.3027 40.6973C8.80831 39.2028 7.96875 37.1759 7.96875 35.0625V15.9375C7.96875 13.8241 8.80831 11.7972 10.3027 10.3027C11.7972 8.80831 13.8241 7.96875 15.9375 7.96875H35.0625C37.1759 7.96875 39.2028 8.80831 40.6973 10.3027C42.1917 11.7972 43.0312 13.8241 43.0312 15.9375V35.0625ZM38.25 15.1406C38.25 15.6134 38.1098 16.0756 37.8471 16.4688C37.5844 16.8619 37.2111 17.1683 36.7742 17.3493C36.3374 17.5302 35.8567 17.5776 35.393 17.4853C34.9293 17.3931 34.5033 17.1654 34.1689 16.8311C33.8346 16.4967 33.6069 16.0707 33.5147 15.607C33.4224 15.1433 33.4698 14.6626 33.6507 14.2258C33.8317 13.7889 34.1381 13.4156 34.5312 13.1529C34.9244 12.8902 35.3866 12.75 35.8594 12.75C36.4934 12.75 37.1015 13.0019 37.5498 13.4502C37.9981 13.8985 38.25 14.5066 38.25 15.1406Z" fill="#243761"/>
</svg>
