<svg width="37" height="37" viewBox="0 0 37 37" fill="none" xmlns="http://www.w3.org/2000/svg">
<path d="M31.8183 6.81836H4.54554C4.24416 6.81836 3.95512 6.93808 3.74201 7.15119C3.5289 7.3643 3.40918 7.65334 3.40918 7.95472V27.2729C3.40918 27.8757 3.64863 28.4537 4.07485 28.88C4.50106 29.3062 5.07914 29.5456 5.68191 29.5456H30.6819C31.2847 29.5456 31.8627 29.3062 32.289 28.88C32.7152 28.4537 32.9546 27.8757 32.9546 27.2729V7.95472C32.9546 7.65334 32.8349 7.3643 32.6218 7.15119C32.4087 6.93808 32.1196 6.81836 31.8183 6.81836ZM28.8964 9.09109L18.1819 18.9135L7.46742 9.09109H28.8964ZM30.6819 27.2729H5.68191V10.5385L17.4134 21.2928C17.6231 21.4852 17.8973 21.592 18.1819 21.592C18.4665 21.592 18.7407 21.4852 18.9504 21.2928L30.6819 10.5385V27.2729Z" fill="#243761"/>
</svg>
