<svg width="50" height="50" viewBox="0 0 50 50" fill="none" xmlns="http://www.w3.org/2000/svg">
<path d="M34.3753 45.3125C34.3753 45.7269 34.2106 46.1243 33.9176 46.4173C33.6246 46.7104 33.2272 46.875 32.8128 46.875H17.1878C16.7734 46.875 16.3759 46.7104 16.0829 46.4173C15.7899 46.1243 15.6253 45.7269 15.6253 45.3125C15.6253 44.8981 15.7899 44.5007 16.0829 44.2076C16.3759 43.9146 16.7734 43.75 17.1878 43.75H32.8128C33.2272 43.75 33.6246 43.9146 33.9176 44.2076C34.2106 44.5007 34.3753 44.8981 34.3753 45.3125ZM42.1878 20.3125C42.1945 22.9173 41.6061 25.4891 40.4674 27.8318C39.3287 30.1745 37.6698 32.2261 35.6174 33.8301C35.2337 34.1242 34.9223 34.5022 34.707 34.9352C34.4917 35.3681 34.3782 35.8446 34.3753 36.3281V37.5C34.3753 38.3288 34.046 39.1236 33.46 39.7097C32.8739 40.2957 32.0791 40.625 31.2503 40.625H18.7503C17.9215 40.625 17.1266 40.2957 16.5405 39.7097C15.9545 39.1236 15.6253 38.3288 15.6253 37.5V36.3281C15.6249 35.8504 15.5151 35.3791 15.3041 34.9504C15.0932 34.5218 14.7868 34.1472 14.4085 33.8555C12.3612 32.261 10.7035 30.2217 9.56076 27.892C8.41805 25.5623 7.8203 23.0031 7.81276 20.4082C7.76197 11.0996 15.2854 3.34764 24.5862 3.12498C26.8779 3.06976 29.1575 3.47353 31.2908 4.31252C33.4241 5.15151 35.368 6.40878 37.0082 8.01032C38.6483 9.61186 39.9515 11.5253 40.841 13.638C41.7305 15.7508 42.1884 18.0201 42.1878 20.3125ZM39.0628 20.3125C39.0633 18.4368 38.6886 16.58 37.9608 14.8513C37.2329 13.1227 36.1666 11.5571 34.8245 10.2467C33.4825 8.93632 31.8919 7.90767 30.1463 7.22129C28.4008 6.5349 26.5355 6.20466 24.6604 6.24998C17.0432 6.42967 10.8967 12.7715 10.9378 20.3887C10.9449 22.5109 11.4346 24.6037 12.3699 26.5088C13.3052 28.4138 14.6615 30.0812 16.3362 31.3848C17.089 31.97 17.6979 32.7197 18.1164 33.5765C18.5348 34.4334 18.7516 35.3746 18.7503 36.3281V37.5H31.2503V36.3281C31.2524 35.3719 31.473 34.4287 31.8951 33.5707C32.3171 32.7126 32.9296 31.9623 33.6858 31.3769C35.3657 30.0641 36.7234 28.3848 37.6553 26.4672C38.5871 24.5496 39.0686 22.4445 39.0628 20.3125ZM35.9163 18.4883C35.5111 16.2252 34.4223 14.1405 32.7964 12.515C31.1706 10.8895 29.0857 9.80114 26.8225 9.39647C26.6202 9.36236 26.413 9.36844 26.213 9.41436C26.013 9.46029 25.824 9.54516 25.6568 9.66414C25.4896 9.78311 25.3474 9.93386 25.2385 10.1078C25.1295 10.2817 25.0559 10.4753 25.0217 10.6777C24.9876 10.8801 24.9937 11.0872 25.0396 11.2872C25.0856 11.4872 25.1704 11.6762 25.2894 11.8435C25.4084 12.0107 25.5591 12.1528 25.733 12.2618C25.907 12.3707 26.1006 12.4444 26.303 12.4785C29.5393 13.0234 32.2854 15.7695 32.8342 19.0117C32.8961 19.3756 33.0847 19.7059 33.3668 19.944C33.6489 20.1821 34.0061 20.3126 34.3753 20.3125C34.4636 20.312 34.5517 20.3048 34.6389 20.291C35.0473 20.2213 35.4113 19.9922 35.6509 19.6541C35.8904 19.3161 35.9859 18.8967 35.9163 18.4883Z" fill="#5380E0"/>
</svg>
