<svg width="51" height="51" viewBox="0 0 51 51" fill="none" xmlns="http://www.w3.org/2000/svg">
<path d="M43.0312 4.78125H7.96875C7.12337 4.78125 6.31262 5.11707 5.71485 5.71485C5.11707 6.31262 4.78125 7.12337 4.78125 7.96875V43.0312C4.78125 43.8766 5.11707 44.6874 5.71485 45.2852C6.31262 45.8829 7.12337 46.2188 7.96875 46.2188H43.0312C43.8766 46.2188 44.6874 45.8829 45.2852 45.2852C45.8829 44.6874 46.2188 43.8766 46.2188 43.0312V7.96875C46.2188 7.12337 45.8829 6.31262 45.2852 5.71485C44.6874 5.11707 43.8766 4.78125 43.0312 4.78125ZM43.0312 43.0312H7.96875V7.96875H43.0312V43.0312ZM19.125 22.3125V35.0625C19.125 35.4852 18.9571 35.8906 18.6582 36.1895C18.3593 36.4883 17.9539 36.6562 17.5312 36.6562C17.1086 36.6562 16.7032 36.4883 16.4043 36.1895C16.1054 35.8906 15.9375 35.4852 15.9375 35.0625V22.3125C15.9375 21.8898 16.1054 21.4844 16.4043 21.1855C16.7032 20.8867 17.1086 20.7188 17.5312 20.7188C17.9539 20.7188 18.3593 20.8867 18.6582 21.1855C18.9571 21.4844 19.125 21.8898 19.125 22.3125ZM36.6562 27.8906V35.0625C36.6562 35.4852 36.4883 35.8906 36.1895 36.1895C35.8906 36.4883 35.4852 36.6562 35.0625 36.6562C34.6398 36.6562 34.2344 36.4883 33.9355 36.1895C33.6367 35.8906 33.4688 35.4852 33.4688 35.0625V27.8906C33.4688 26.8339 33.049 25.8205 32.3018 25.0732C31.5545 24.326 30.5411 23.9062 29.4844 23.9062C28.4277 23.9062 27.4142 24.326 26.667 25.0732C25.9198 25.8205 25.5 26.8339 25.5 27.8906V35.0625C25.5 35.4852 25.3321 35.8906 25.0332 36.1895C24.7343 36.4883 24.3289 36.6562 23.9062 36.6562C23.4836 36.6562 23.0782 36.4883 22.7793 36.1895C22.4804 35.8906 22.3125 35.4852 22.3125 35.0625V22.3125C22.3145 21.9221 22.4597 21.546 22.7205 21.2556C22.9814 20.9652 23.3398 20.7806 23.7277 20.7369C24.1156 20.6931 24.5061 20.7933 24.8251 21.0184C25.1441 21.2434 25.3693 21.5777 25.4582 21.9579C26.5363 21.2265 27.7933 20.8026 29.0942 20.7317C30.3951 20.6609 31.6907 20.9457 32.8419 21.5556C33.9931 22.1655 34.9565 23.0775 35.6285 24.1936C36.3005 25.3097 36.6558 26.5878 36.6562 27.8906ZM19.9219 16.7344C19.9219 17.2072 19.7817 17.6694 19.519 18.0625C19.2563 18.4557 18.8829 18.7621 18.4461 18.943C18.0093 19.124 17.5286 19.1713 17.0649 19.0791C16.6011 18.9868 16.1752 18.7591 15.8408 18.4248C15.5065 18.0905 15.2788 17.6645 15.1866 17.2008C15.0943 16.737 15.1417 16.2564 15.3226 15.8195C15.5035 15.3827 15.81 15.0093 16.2031 14.7466C16.5962 14.484 17.0584 14.3438 17.5312 14.3438C18.1653 14.3438 18.7733 14.5956 19.2217 15.0439C19.67 15.4923 19.9219 16.1003 19.9219 16.7344Z" fill="#243761"/>
</svg>
