<svg width="50" height="50" viewBox="0 0 50 50" fill="none" xmlns="http://www.w3.org/2000/svg">
<path d="M9.37453 12.5C9.37453 12.0856 9.53915 11.6882 9.83217 11.3951C10.1252 11.1021 10.5226 10.9375 10.937 10.9375H14.062V7.8125C14.062 7.3981 14.2266 7.00067 14.5197 6.70765C14.8127 6.41462 15.2101 6.25 15.6245 6.25C16.0389 6.25 16.4364 6.41462 16.7294 6.70765C17.0224 7.00067 17.187 7.3981 17.187 7.8125V10.9375H20.312C20.7264 10.9375 21.1239 11.1021 21.4169 11.3951C21.7099 11.6882 21.8745 12.0856 21.8745 12.5C21.8745 12.9144 21.7099 13.3118 21.4169 13.6049C21.1239 13.8979 20.7264 14.0625 20.312 14.0625H17.187V17.1875C17.187 17.6019 17.0224 17.9993 16.7294 18.2924C16.4364 18.5854 16.0389 18.75 15.6245 18.75C15.2101 18.75 14.8127 18.5854 14.5197 18.2924C14.2266 17.9993 14.062 17.6019 14.062 17.1875V14.0625H10.937C10.5226 14.0625 10.1252 13.8979 9.83217 13.6049C9.53915 13.3118 9.37453 12.9144 9.37453 12.5ZM35.937 37.5H34.3745V35.9375C34.3745 35.5231 34.2099 35.1257 33.9169 34.8326C33.6239 34.5396 33.2264 34.375 32.812 34.375C32.3976 34.375 32.0002 34.5396 31.7072 34.8326C31.4141 35.1257 31.2495 35.5231 31.2495 35.9375V37.5H29.687C29.2726 37.5 28.8752 37.6646 28.5822 37.9576C28.2891 38.2507 28.1245 38.6481 28.1245 39.0625C28.1245 39.4769 28.2891 39.8743 28.5822 40.1674C28.8752 40.4604 29.2726 40.625 29.687 40.625H31.2495V42.1875C31.2495 42.6019 31.4141 42.9993 31.7072 43.2924C32.0002 43.5854 32.3976 43.75 32.812 43.75C33.2264 43.75 33.6239 43.5854 33.9169 43.2924C34.2099 42.9993 34.3745 42.6019 34.3745 42.1875V40.625H35.937C36.3514 40.625 36.7489 40.4604 37.0419 40.1674C37.3349 39.8743 37.4995 39.4769 37.4995 39.0625C37.4995 38.6481 37.3349 38.2507 37.0419 37.9576C36.7489 37.6646 36.3514 37.5 35.937 37.5ZM46.8745 28.125H43.7495V25C43.7495 24.5856 43.5849 24.1882 43.2919 23.8951C42.9989 23.6021 42.6014 23.4375 42.187 23.4375C41.7726 23.4375 41.3752 23.6021 41.0822 23.8951C40.7891 24.1882 40.6245 24.5856 40.6245 25V28.125H37.4995C37.0851 28.125 36.6877 28.2896 36.3947 28.5826C36.1016 28.8757 35.937 29.2731 35.937 29.6875C35.937 30.1019 36.1016 30.4993 36.3947 30.7924C36.6877 31.0854 37.0851 31.25 37.4995 31.25H40.6245V34.375C40.6245 34.7894 40.7891 35.1868 41.0822 35.4799C41.3752 35.7729 41.7726 35.9375 42.187 35.9375C42.6014 35.9375 42.9989 35.7729 43.2919 35.4799C43.5849 35.1868 43.7495 34.7894 43.7495 34.375V31.25H46.8745C47.2889 31.25 47.6864 31.0854 47.9794 30.7924C48.2724 30.4993 48.437 30.1019 48.437 29.6875C48.437 29.2731 48.2724 28.8757 47.9794 28.5826C47.6864 28.2896 47.2889 28.125 46.8745 28.125ZM42.8335 15.625L15.6245 42.834C15.0385 43.4196 14.244 43.7486 13.4155 43.7486C12.5871 43.7486 11.7926 43.4196 11.2066 42.834L7.16359 38.7949C6.87333 38.5047 6.64308 38.1602 6.48599 37.781C6.3289 37.4018 6.24805 36.9954 6.24805 36.585C6.24805 36.1745 6.3289 35.7681 6.48599 35.3889C6.64308 35.0097 6.87333 34.6652 7.16359 34.375L34.3745 7.16602C34.6647 6.87576 35.0093 6.64551 35.3884 6.48842C35.7676 6.33133 36.174 6.25047 36.5845 6.25047C36.9949 6.25047 37.4014 6.33133 37.7805 6.48842C38.1597 6.64551 38.5043 6.87576 38.7945 7.16602L42.8335 11.2051C43.1238 11.4953 43.354 11.8398 43.5111 12.219C43.6682 12.5982 43.7491 13.0046 43.7491 13.415C43.7491 13.8255 43.6682 14.2319 43.5111 14.6111C43.354 14.9903 43.1238 15.3348 42.8335 15.625ZM32.1636 21.875L28.1245 17.834L9.37453 36.584L13.4136 40.625L32.1636 21.875ZM40.6245 13.416L36.5835 9.375L30.3335 15.625L34.3745 19.666L40.6245 13.416Z" fill="#5380E0"/>
</svg>
