<svg width="50" height="50" viewBox="0 0 50 50" fill="none" xmlns="http://www.w3.org/2000/svg">
<path d="M46.2659 5.11524C46.0238 4.9062 45.7293 4.76717 45.414 4.71313C45.0988 4.6591 44.7747 4.69211 44.4768 4.8086L4.89481 20.2988C4.33384 20.517 3.85892 20.9114 3.54154 21.4228C3.22416 21.9342 3.0815 22.5349 3.13504 23.1344C3.18857 23.7339 3.43541 24.2998 3.83839 24.7469C4.24137 25.1939 4.77868 25.498 5.36942 25.6133L15.6253 27.627V39.0625C15.6233 39.6854 15.8084 40.2945 16.1566 40.811C16.5049 41.3274 17.0002 41.7274 17.5784 41.959C18.1557 42.1947 18.7906 42.2513 19.4006 42.1214C20.0105 41.9915 20.5672 41.681 20.9983 41.2305L25.9436 36.1016L33.7893 42.9688C34.3554 43.4708 35.0854 43.7487 35.8421 43.75C36.1736 43.7497 36.5031 43.6977 36.8186 43.5957C37.3342 43.4321 37.7978 43.1363 38.1635 42.7378C38.5291 42.3393 38.784 41.8519 38.9026 41.3242L46.8304 6.83594C46.9013 6.52491 46.8862 6.20044 46.7868 5.89731C46.6873 5.59419 46.5073 5.32384 46.2659 5.11524ZM34.3245 12.1465L16.8265 24.6777L7.13895 22.7774L34.3245 12.1465ZM18.7503 39.0625V29.7891L23.5921 34.0352L18.7503 39.0625ZM35.846 40.625L19.6975 26.4649L42.9397 9.80665L35.846 40.625Z" fill="#5380E0"/>
</svg>
