<svg width="36" height="37" viewBox="0 0 36 37" fill="none" xmlns="http://www.w3.org/2000/svg">
<path d="M26.3787 20.9339L21.8787 18.6214C21.7016 18.5307 21.5043 18.4896 21.3068 18.5023C21.1092 18.515 20.9185 18.581 20.7537 18.6937L18.6879 20.1101C17.7396 19.5743 16.9592 18.7722 16.4379 17.7976L17.816 15.6744C17.9257 15.5051 17.9899 15.309 18.0023 15.106C18.0146 14.903 17.9746 14.7002 17.8864 14.5182L15.6364 9.89316C15.5431 9.69959 15.3989 9.53674 15.2202 9.42307C15.0415 9.30939 14.8354 9.24944 14.6253 9.25C13.1334 9.25 11.7027 9.85909 10.6478 10.9433C9.5929 12.0275 9.00026 13.498 9.00026 15.0312C9.00398 18.4033 10.309 21.6361 12.6289 24.0205C14.9489 26.4049 18.0944 27.7462 21.3753 27.75C22.1139 27.75 22.8454 27.6005 23.5279 27.3099C24.2103 27.0194 24.8304 26.5935 25.3527 26.0567C25.8751 25.5199 26.2894 24.8826 26.5721 24.1811C26.8548 23.4797 27.0003 22.728 27.0003 21.9688C27.0004 21.7539 26.9423 21.5433 26.8326 21.3606C26.7228 21.1778 26.5656 21.03 26.3787 20.9339ZM21.3753 25.4375C18.6909 25.4344 16.1173 24.3371 14.2191 22.3862C12.3209 20.4353 11.2532 17.7902 11.2503 15.0312C11.25 14.2293 11.5202 13.452 12.0148 12.8317C12.5094 12.2114 13.1978 11.7864 13.9629 11.629L15.5773 14.9532L14.2034 17.0547C14.1007 17.213 14.0376 17.3948 14.0197 17.5842C14.0018 17.7735 14.0296 17.9645 14.1007 18.1401C14.9056 20.1063 16.4275 21.6705 18.3406 22.4977C18.512 22.574 18.6992 22.6053 18.8853 22.5886C19.0714 22.572 19.2505 22.5079 19.4065 22.4023L21.461 20.9946L24.6954 22.6538C24.5411 23.4411 24.1258 24.149 23.5203 24.6566C22.9148 25.1643 22.1567 25.4403 21.3753 25.4375ZM18.0003 3.46875C15.4753 3.46818 12.9932 4.1395 10.7956 5.41736C8.59792 6.69522 6.75961 8.53609 5.45957 10.7608C4.15952 12.9855 3.44203 15.5182 3.37693 18.1125C3.31183 20.7067 3.90134 23.2741 5.08808 25.5647L3.49198 30.486C3.35977 30.8934 3.34059 31.3307 3.43657 31.7487C3.53256 32.1667 3.73992 32.549 4.03543 32.8527C4.33093 33.1565 4.7029 33.3696 5.10963 33.4682C5.51636 33.5669 5.94179 33.5472 6.33823 33.4113L11.1265 31.7709C13.0879 32.8431 15.2612 33.4419 17.4814 33.522C19.7016 33.6021 21.9104 33.1612 23.9401 32.233C25.9698 31.3047 27.767 29.9134 29.1954 28.1646C30.6238 26.4159 31.6458 24.3557 32.1839 22.1404C32.7219 19.925 32.7618 17.6129 32.3006 15.3793C31.8394 13.1458 30.8891 11.0496 29.522 9.24988C28.1549 7.45015 26.4068 5.99417 24.4104 4.99248C22.414 3.99078 20.2218 3.46969 18.0003 3.46875ZM18.0003 31.2188C15.8248 31.2203 13.6874 30.6315 11.8043 29.5118C11.6665 29.4297 11.5132 29.3785 11.3546 29.3618C11.1961 29.3451 11.0359 29.3633 10.8846 29.415L5.62526 31.2188L7.37886 25.8133C7.42941 25.658 7.44727 25.4934 7.43127 25.3304C7.41527 25.1675 7.36577 25.0099 7.28604 24.868C5.92194 22.4441 5.37426 19.6253 5.72796 16.8488C6.08166 14.0723 7.31697 11.4934 9.24226 9.51217C11.1676 7.5309 13.6752 6.25802 16.3762 5.89098C19.0772 5.52395 21.8205 6.08328 24.1806 7.48222C26.5408 8.88115 28.3857 11.0415 29.4294 13.6281C30.473 16.2147 30.6569 19.0829 29.9526 21.7879C29.2483 24.4929 27.6951 26.8834 25.534 28.5886C23.3729 30.2938 20.7248 31.2183 18.0003 31.2188Z" fill="#243761"/>
</svg>
