<svg width="51" height="51" viewBox="0 0 51 51" fill="none" xmlns="http://www.w3.org/2000/svg">
<path d="M37.3691 28.8548L30.9941 25.6673C30.7432 25.5423 30.4637 25.4857 30.1838 25.5031C29.904 25.5206 29.6338 25.6116 29.4003 25.767L26.4738 27.7193C25.1304 26.9808 24.0248 25.8752 23.2863 24.5318L25.2387 21.6053C25.394 21.3719 25.485 21.1016 25.5025 20.8218C25.52 20.5419 25.4633 20.2625 25.3383 20.0115L22.1508 13.6365C22.0187 13.3697 21.8144 13.1452 21.5613 12.9886C21.3081 12.8319 21.0161 12.7492 20.7184 12.75C18.6049 12.75 16.5781 13.5896 15.0836 15.084C13.5892 16.5784 12.7496 18.6053 12.7496 20.7188C12.7549 25.3667 14.6036 29.8228 17.8902 33.1094C21.1769 36.396 25.6329 38.2447 30.2809 38.25C31.3274 38.25 32.3636 38.0439 33.3304 37.6434C34.2972 37.243 35.1757 36.656 35.9156 35.916C36.6556 35.176 37.2426 34.2976 37.6431 33.3308C38.0435 32.3639 38.2496 31.3277 38.2496 30.2812C38.2499 29.9852 38.1676 29.6949 38.0121 29.4429C37.8565 29.191 37.6339 28.9873 37.3691 28.8548ZM30.2809 35.0625C26.478 35.0583 22.832 33.5457 20.143 30.8567C17.4539 28.1676 15.9414 24.5217 15.9371 20.7188C15.9368 19.6133 16.3196 18.5419 17.0202 17.6869C17.7209 16.8319 18.6961 16.2461 19.7801 16.0291L22.0671 20.6112L20.1207 23.5078C19.9753 23.726 19.8859 23.9767 19.8606 24.2377C19.8352 24.4986 19.8746 24.7618 19.9753 25.0039C21.1156 27.7141 23.2716 29.8701 25.9817 31.0104C26.2246 31.1156 26.4898 31.1586 26.7534 31.1357C27.0171 31.1127 27.2708 31.0245 27.4918 30.8789L30.4024 28.9385L34.9844 31.2255C34.7658 32.3107 34.1774 33.2864 33.3196 33.9862C32.4619 34.6859 31.3879 35.0663 30.2809 35.0625ZM25.4996 4.78125C21.9226 4.78047 18.4063 5.7058 15.293 7.46718C12.1797 9.22855 9.57538 11.766 7.73365 14.8324C5.89193 17.8989 4.87548 21.39 4.78326 24.9658C4.69103 28.5417 5.52617 32.0805 7.20737 35.2378L4.94624 42.0212C4.75894 42.5828 4.73176 43.1855 4.86774 43.7617C5.00373 44.3379 5.29749 44.8649 5.71612 45.2835C6.13476 45.7021 6.6617 45.9959 7.23791 46.1319C7.81411 46.2679 8.4168 46.2407 8.97843 46.0534L15.7618 43.7923C18.5405 45.2702 21.6193 46.0956 24.7646 46.206C27.9099 46.3164 31.039 45.7087 33.9144 44.4292C36.7898 43.1497 39.3359 41.232 41.3595 38.8215C43.383 36.4111 44.8309 33.5713 45.5931 30.5178C46.3553 27.4642 46.4119 24.2772 45.7585 21.1985C45.1051 18.1199 43.7589 15.2305 41.8221 12.7498C39.8853 10.2691 37.4088 8.26224 34.5806 6.88152C31.7524 5.50081 28.6469 4.78254 25.4996 4.78125ZM25.4996 43.0312C22.4177 43.0333 19.3898 42.2217 16.7221 40.6785C16.5267 40.5652 16.3096 40.4947 16.085 40.4717C15.8603 40.4487 15.6334 40.4737 15.4192 40.545L7.96839 43.0312L10.4526 35.5805C10.5243 35.3664 10.5496 35.1395 10.5269 34.9149C10.5042 34.6903 10.4341 34.473 10.3212 34.2776C8.38868 30.9365 7.6128 27.0511 8.11388 23.224C8.61495 19.397 10.365 15.8423 13.0925 13.1114C15.82 10.3804 19.3725 8.62591 23.1989 8.12C27.0252 7.61409 30.9117 8.38507 34.2552 10.3133C37.5987 12.2416 40.2124 15.2193 41.6909 18.7846C43.1693 22.3499 43.4299 26.3035 42.4321 30.032C41.4343 33.7605 39.234 37.0555 36.1725 39.4059C33.1109 41.7563 29.3593 43.0306 25.4996 43.0312Z" fill="#243761"/>
</svg>
