<svg width="26" height="26" viewBox="0 0 26 26" fill="none" xmlns="http://www.w3.org/2000/svg">
<path d="M19.0514 14.7103L15.8014 13.0853C15.6735 13.0216 15.531 12.9927 15.3884 13.0016C15.2457 13.0105 15.1079 13.0569 14.9889 13.1361L13.497 14.1314C12.8121 13.7549 12.2485 13.1913 11.872 12.5064L12.8673 11.0145C12.9465 10.8955 12.9929 10.7577 13.0018 10.615C13.0107 10.4724 12.9818 10.3299 12.9181 10.202L11.2931 6.95195C11.2257 6.81593 11.1216 6.7015 10.9926 6.62162C10.8635 6.54174 10.7146 6.49961 10.5629 6.5C9.48541 6.5 8.4521 6.92801 7.69023 7.68988C6.92836 8.45175 6.50035 9.48506 6.50035 10.5625C6.50304 12.932 7.44553 15.2038 9.12105 16.8793C10.7966 18.5548 13.0683 19.4973 15.4379 19.5C15.9713 19.5 16.4996 19.3949 16.9925 19.1908C17.4854 18.9866 17.9332 18.6874 18.3105 18.3101C18.6877 17.9329 18.987 17.485 19.1911 16.9922C19.3953 16.4993 19.5004 15.971 19.5004 15.4375C19.5005 15.2866 19.4585 15.1386 19.3792 15.0101C19.2999 14.8817 19.1864 14.7779 19.0514 14.7103ZM15.4379 17.875C13.4991 17.8728 11.6404 17.1017 10.2695 15.7308C8.89862 14.3599 8.1275 12.5012 8.12535 10.5625C8.12519 9.99895 8.32032 9.45275 8.67751 9.01686C9.0347 8.58097 9.5319 8.28232 10.0845 8.17172L11.2504 10.5077L10.2582 11.9844C10.184 12.0956 10.1385 12.2234 10.1255 12.3565C10.1126 12.4895 10.1327 12.6237 10.184 12.7471C10.7654 14.1287 11.8645 15.2279 13.2461 15.8092C13.3699 15.8628 13.5051 15.8848 13.6395 15.8731C13.7739 15.8614 13.9033 15.8164 14.016 15.7422L15.4998 14.753L17.8357 15.9189C17.7243 16.4721 17.4243 16.9696 16.987 17.3263C16.5497 17.683 16.0022 17.8769 15.4379 17.875ZM13.0004 2.4375C11.1768 2.4371 9.38414 2.90884 7.79695 3.8068C6.20977 4.70475 4.8821 5.99833 3.94318 7.56163C3.00426 9.12493 2.48608 10.9047 2.43906 12.7277C2.39204 14.5507 2.8178 16.3548 3.67488 17.9644L2.52215 21.4226C2.42666 21.7089 2.41281 22.0162 2.48213 22.3099C2.55145 22.6037 2.70122 22.8723 2.91464 23.0857C3.12806 23.2991 3.3967 23.4489 3.69045 23.5182C3.9842 23.5875 4.29146 23.5737 4.57777 23.4782L8.03598 22.3255C9.45254 23.0789 11.0221 23.4997 12.6256 23.556C14.2291 23.6123 15.8243 23.3025 17.2902 22.6502C18.7561 21.9979 20.0541 21.0202 21.0858 19.7914C22.1174 18.5625 22.8555 17.1148 23.2441 15.5581C23.6327 14.0014 23.6615 12.3766 23.3284 10.8071C22.9953 9.23759 22.309 7.76459 21.3216 6.49991C20.3342 5.23524 19.0717 4.21212 17.6299 3.50823C16.1881 2.80433 14.6048 2.43816 13.0004 2.4375ZM13.0004 21.9375C11.4292 21.9386 9.88553 21.5248 8.52551 20.738C8.42593 20.6803 8.31522 20.6444 8.20071 20.6326C8.0862 20.6209 7.97051 20.6336 7.86129 20.67L4.06285 21.9375L5.32934 18.1391C5.36584 18.0299 5.37875 17.9143 5.36719 17.7998C5.35564 17.6852 5.31988 17.5745 5.26231 17.4748C4.27712 15.7716 3.88157 13.7907 4.13702 11.8397C4.39247 9.88867 5.28464 8.07647 6.67513 6.68423C8.06562 5.29198 9.87669 4.39752 11.8274 4.13961C13.7781 3.88169 15.7594 4.27474 17.464 5.25777C19.1685 6.24081 20.501 7.75888 21.2547 9.57648C22.0084 11.3941 22.1413 13.4096 21.6326 15.3104C21.1239 17.2112 20.0022 18.891 18.4414 20.0893C16.8806 21.2875 14.968 21.9372 13.0004 21.9375Z" fill="white"/>
</svg>
